<?xml version="1.0" encoding="UTF-8" standalone="no"?>
<!-- Created with Inkscape (http://www.inkscape.org/) -->

<svg
   version="1.1"
   id="svg1"
   width="634.56"
   height="182"
   viewBox="0 0 634.56 182"
   sodipodi:docname="LOGO-AG-EN-Original.eps"
   xmlns:inkscape="http://www.inkscape.org/namespaces/inkscape"
   xmlns:sodipodi="http://sodipodi.sourceforge.net/DTD/sodipodi-0.dtd"
   xmlns="http://www.w3.org/2000/svg"
   xmlns:svg="http://www.w3.org/2000/svg">
  <defs
     id="defs1" />
  <sodipodi:namedview
     id="namedview1"
     pagecolor="#ffffff"
     bordercolor="#000000"
     borderopacity="0.25"
     inkscape:showpageshadow="2"
     inkscape:pageopacity="0.0"
     inkscape:pagecheckerboard="0"
     inkscape:deskcolor="#d1d1d1">
    <inkscape:page
       x="0"
       y="0"
       inkscape:label="1"
       id="page1"
       width="634.56"
       height="182"
       margin="0"
       bleed="0" />
  </sodipodi:namedview>
  <g
     id="g1"
     inkscape:groupmode="layer"
     inkscape:label="1">
    <g
       id="group-R5">
      <path
         id="path2"
         d="m 1085.75,250 h -15.15 c -7.51,0 -21.19,7.441 -25.76,16.531 L 723.012,972.313 h -6.43 l -0.082,0.792 h -0.422 c 0,0 -134.137,-300.031 -147.91,-330.832 l -22.324,-51.992 c -0.492,-0.691 -1.219,-1.082 -1.742,-1.707 -0.039,-0.039 -0.047,-0.051 -0.063,-0.09 -6.805,-7.925 -15.957,-11.902 -28.242,-13.484 -4.102,-0.559 -8.539,-0.867 -13.371,-0.945 l -80.098,0.027 c -3.058,0.496 -5.765,1.199 -8.285,2.039 -0.859,0.297 -1.57,0.688 -2.355,1.02 -1.536,0.601 -3.028,1.25 -4.333,2.007 -0.824,0.532 -1.515,1.079 -2.226,1.582 -1.059,0.747 -2.027,1.516 -2.934,2.446 -0.656,0.613 -1.203,1.277 -1.75,1.961 -0.711,0.957 -1.351,1.875 -1.906,2.89 -0.457,0.743 -0.863,1.536 -1.195,2.332 -0.442,1.028 -0.723,2.121 -1.02,3.227 -0.215,0.879 -0.523,1.758 -0.64,2.684 -0.157,1.179 -0.157,2.402 -0.196,3.652 -0.015,0.93 -0.117,1.855 -0.039,2.851 0.137,2.04 0.446,4.153 0.957,6.336 0.614,2.739 1.5,5.586 2.676,8.52 l 289.762,638.431 c 4.574,9.09 18.246,16.53 25.746,16.53 h 15.16 c 7.52,0 21.18,-7.44 25.742,-16.53 L 1072.09,549.473 h 0.41 l 0.08,0.8 h 6.43 l 204.86,455.117 C 1168.7,1219.45 942.617,1365 682.5,1365 305.566,1365 0,1059.43 0,682.5 0,637.063 4.54297,592.695 13.0078,549.746 H 848.52 c 14.742,0 26.414,-3.496 35.027,-22.41 l 29.336,-57.133 c 9.344,-20.691 -3.496,-39.676 -25.238,-39.527 H 48.1797 C 83.7109,341.262 137.504,261.141 205.09,194.949 l 90,191.059 1.176,2.722 c 0.043,0.071 0.089,0.11 0.148,0.157 9.094,12.09 23.059,15.593 43.512,16.062 l 80.519,-0.144 c 24.051,-3.719 30.91,-19.2 25.075,-38.504 -0.504,-1.653 -0.954,-3.321 -1.668,-5.11 l -11.696,-24.75 C 358.434,171.578 344.984,147.051 331.133,115.121 329.352,110.949 326.371,106.59 322.359,102.809 426.91,37.7109 550.273,0 682.5,0 1059.43,0 1365,305.57 1365,682.5 c 0,41.051 -3.83,81.184 -10.78,120.238 L 1111.49,266.531 C 1106.93,257.441 1093.27,250 1085.75,250"
         style="fill:#64c438;fill-opacity:1;fill-rule:nonzero;stroke:none"
         transform="matrix(0.13333333,0,0,-0.13333333,0,182)" />
      <path
         id="path3"
         d="m 1987.74,1278.9 c -2.94,5.89 -11.76,10.69 -16.64,10.69 h -9.79 c -4.85,0 -13.67,-4.8 -16.63,-10.69 L 1757.4,866.301 c -0.75,-1.883 -1.33,-3.735 -1.71,-5.516 -0.33,-1.394 -0.54,-2.758 -0.62,-4.086 -0.06,-0.64 0.02,-1.219 0.02,-1.82 0.02,-0.82 0.02,-1.602 0.13,-2.367 0.08,-0.61 0.27,-1.184 0.41,-1.746 0.2,-0.7 0.37,-1.426 0.66,-2.078 0.21,-0.508 0.47,-1.051 0.76,-1.497 0.37,-0.671 0.78,-1.25 1.25,-1.882 0.35,-0.454 0.7,-0.875 1.13,-1.262 0.58,-0.602 1.2,-1.121 1.89,-1.586 0.47,-0.328 0.92,-0.676 1.44,-1.031 0.83,-0.477 1.81,-0.895 2.81,-1.297 0.49,-0.223 0.95,-0.469 1.51,-0.653 1.62,-0.531 3.38,-0.984 5.36,-1.328 l 51.76,-0.011 c 3.11,0.05 6,0.25 8.65,0.613 7.92,1.031 13.84,3.601 18.25,8.723 0,0.011 0.02,0.043 0.04,0.05 0.32,0.418 0.8,0.676 1.13,1.11 l 14.41,33.613 c 8.9,19.895 95.61,213.8 95.61,213.8 h 0.27 l 0.03,-0.53 h 4.18 l 42.26,-92.71 8.83,-19.669 0.07,0.011 166.9,-372.097 c 3.91,-8.782 10.72,-14.59 22.47,-14.59 h 61.43 c 14.63,0 22.38,12.59 16.5,25.312 L 1987.74,1278.9"
         style="fill:#64c438;fill-opacity:1;fill-rule:nonzero;stroke:none"
         transform="matrix(0.13333333,0,0,-0.13333333,0,182)" />
      <path
         id="path4"
         d="m 2629.73,686.191 h -148.11 v 208.536 h 133.49 c 63.35,0 119.96,-42.907 119.96,-102.317 0,-60.461 -45.79,-106.219 -105.34,-106.219 z m -147.17,501.059 h 131.59 c 62.39,0 100.39,-40.99 100.39,-100.49 0,-58.44 -38,-104.315 -100.39,-104.315 h -131.59 z m 238.87,-243.777 c 45.78,26.257 101.32,79.957 101.32,155.037 0,102.37 -84.76,180.34 -202.7,180.34 h -218.37 c -10.7,0 -18.58,-8.73 -18.58,-18.6 V 614.91 c 0,-9.617 7.88,-18.445 18.58,-18.445 h 229.08 c 122.79,0 212.47,78.996 212.47,188.219 0,89.609 -70.15,137.347 -121.8,158.789"
         style="fill:#64c438;fill-opacity:1;fill-rule:nonzero;stroke:none"
         transform="matrix(0.13333333,0,0,-0.13333333,0,182)" />
      <path
         id="path5"
         d="m 3072.62,1278.85 h -64.29 c -9.76,0 -18.57,-8.73 -18.57,-18.6 V 614.91 c 0,-9.617 8.81,-18.445 18.57,-18.445 h 64.29 c 9.75,0 18.61,8.828 18.61,18.445 v 645.34 c 0,9.87 -8.86,18.6 -18.61,18.6"
         style="fill:#64c438;fill-opacity:1;fill-rule:nonzero;stroke:none"
         transform="matrix(0.13333333,0,0,-0.13333333,0,182)" />
      <path
         id="path6"
         d="m 3634.2,1278.85 h -419.19 c -10.68,0 -18.47,-8.73 -18.47,-18.6 v -54.55 c 0,-9.73 7.79,-18.45 18.47,-18.45 h 158.94 V 614.91 c 0,-9.617 8.77,-18.445 18.55,-18.445 h 64.3 c 9.75,0 18.59,8.828 18.59,18.445 v 572.34 h 158.81 c 10.71,0 18.56,8.72 18.56,18.45 v 54.55 c 0,9.87 -7.85,18.6 -18.56,18.6"
         style="fill:#64c438;fill-opacity:1;fill-rule:nonzero;stroke:none"
         transform="matrix(0.13333333,0,0,-0.13333333,0,182)" />
      <path
         id="path7"
         d="m 3841.11,1278.85 h -64.27 c -9.76,0 -18.6,-8.73 -18.6,-18.6 V 614.91 c 0,-9.617 8.84,-18.445 18.6,-18.445 h 64.27 c 9.76,0 18.58,8.828 18.58,18.445 v 645.34 c 0,9.87 -8.82,18.6 -18.58,18.6"
         style="fill:#64c438;fill-opacity:1;fill-rule:nonzero;stroke:none"
         transform="matrix(0.13333333,0,0,-0.13333333,0,182)" />
      <path
         id="path8"
         d="m 4295.53,686.191 h -148.11 v 208.536 h 133.49 c 63.44,0 119.94,-42.907 119.94,-102.317 0,-60.461 -45.8,-106.219 -105.32,-106.219 z m -147.15,501.059 h 131.58 c 62.38,0 100.42,-40.99 100.42,-100.49 0,-58.44 -38.04,-104.315 -100.42,-104.315 h -131.58 z m 238.84,-243.777 c 45.78,26.257 101.34,79.957 101.34,155.037 0,102.37 -84.77,180.34 -202.71,180.34 h -218.34 c -10.71,0 -18.59,-8.73 -18.59,-18.6 V 614.91 c 0,-9.617 7.88,-18.445 18.59,-18.445 h 229.07 c 122.77,0 212.46,78.996 212.46,188.219 0,89.609 -70.16,137.347 -121.82,158.789"
         style="fill:#64c438;fill-opacity:1;fill-rule:nonzero;stroke:none"
         transform="matrix(0.13333333,0,0,-0.13333333,0,182)" />
      <path
         id="path9"
         d="m 4738.43,1278.85 h -64.3 c -9.74,0 -18.55,-8.73 -18.55,-18.6 V 614.91 c 0,-9.617 8.81,-18.445 18.55,-18.445 h 64.3 c 9.74,0 18.58,8.828 18.58,18.445 v 645.34 c 0,9.87 -8.84,18.6 -18.58,18.6"
         style="fill:#64c438;fill-opacity:1;fill-rule:nonzero;stroke:none"
         transform="matrix(0.13333333,0,0,-0.13333333,0,182)" />
      <path
         id="path10"
         d="m 2073.21,807.188 c -5,11.718 -13.1,14.472 -22.63,14.472 l -440.41,0.774 c -9.53,0 -15.89,-5.25 -22.63,-14.473 l -25.42,-36.93 c -6.05,-13.379 2.26,-25.648 16.31,-25.551 h 494.73 c 14.05,-0.097 22.34,12.172 16.3,25.551 l -16.25,36.157"
         style="fill:#64c438;fill-opacity:1;fill-rule:nonzero;stroke:none"
         transform="matrix(0.13333333,0,0,-0.13333333,0,182)" />
      <path
         id="path11"
         d="m 1771.21,728.766 -52.03,0.101 c -13.22,-0.308 -22.24,-2.566 -28.12,-10.375 -0.04,-0.047 -0.05,-0.074 -0.09,-0.113 l -0.78,-1.774 -45.6,-95.687 c -5.9,-12.715 1.92,-25.352 16.68,-25.352 h 61.48 c 11.81,0 19.61,7.786 22.56,14.637 8.95,20.649 -14.16,-32.156 33.48,74.387 l 7.56,15.996 c 0.45,1.133 0.74,2.234 1.07,3.293 3.78,12.484 -0.66,22.465 -16.21,24.887"
         style="fill:#64c438;fill-opacity:1;fill-rule:nonzero;stroke:none"
         transform="matrix(0.13333333,0,0,-0.13333333,0,182)" />
      <path
         id="path12"
         d="m 4352.83,432.168 c 52.2,0 89.2,-18.301 125.01,-47.969 7.06,-5.84 7.36,-7.707 0.52,-14.511 L 4455.59,346.5 c -6.23,-6.328 -7.01,-5.73 -12.89,0 -23.09,22.484 -57.33,34.633 -89.29,34.633 -73.85,0 -129.65,-61.961 -129.65,-134.281 0,-72.243 56.32,-133.68 130.16,-133.68 37.63,0 64.45,14.43 88.78,34.078 5.52,4.441 6.66,4.77 12.36,0.48 l 23.77,-23.21 c 6.84,-7.571 5.61,-8.032 -0.47,-13.95 -35.1,-34.0817 -79.53,-50.1208 -125.53,-50.1208 -103.23,0 -186.3,82.1918 -186.3,185.4418 0,103.218 83.07,186.277 186.3,186.277"
         style="fill:#64c438;fill-opacity:1;fill-rule:nonzero;stroke:none"
         transform="matrix(0.13333333,0,0,-0.13333333,0,182)" />
      <path
         id="path13"
         d="m 1827.75,431.711 c 49.52,0 91.77,-19.848 126.88,-49.809 4.12,-4.07 4.72,-6.55 0.58,-10.757 -7.73,-8.247 -18.1,-18.836 -25.83,-27.086 -4.12,-4.598 -5.71,-4.438 -10.85,0.222 -24.24,21.168 -57.76,36.434 -89.21,36.434 -73.26,0 -129.49,-61.875 -129.49,-134.125 0,-71.738 56.23,-133.61 129.49,-133.61 42.78,0 72.15,15.571 77.35,17.54 v 57.742 h -52.35 c -5.62,0 -8.02,2.047 -8.02,7.238 v 34.602 c 0,5.609 1.47,7.179 7.13,7.179 h 98.8 c 5.17,0 7.07,-2.242 7.07,-7.34 0,-41.242 0.47,-85.98 0.47,-127.242 0,-2.578 -2.06,-6.6873 -4.11,-8.2576 0,0 -53.14,-34.043 -127.91,-34.043 -102.6,0 -185.64,81.9926 -185.64,185.1916 0,103.129 83.04,186.121 185.64,186.121"
         style="fill:#64c438;fill-opacity:1;fill-rule:nonzero;stroke:none"
         transform="matrix(0.13333333,0,0,-0.13333333,0,182)" />
      <path
         id="path14"
         d="m 2040.93,420.027 c 0,5.207 2.2,6.496 7.91,6.496 h 211.75 c 4.83,0 6.25,-1.972 6.25,-7.187 v -33.215 c 0,-5.152 -0.55,-8.008 -6.25,-8.008 H 2094.1 V 272.859 h 140.23 c 5.15,0 7.28,-1.339 7.28,-6.55 v -34.93 c 0,-5.649 -2.4,-6.93 -7.61,-6.93 H 2094.1 V 113.531 h 164.93 c 5.64,0 7.81,-2.601 7.81,-7.703 V 72.4609 c 0,-5.1289 -2.17,-6.9414 -7.81,-6.9414 H 2050.8 c -5.69,0 -9.87,4.6914 -9.87,9.8125 v 344.695"
         style="fill:#64c438;fill-opacity:1;fill-rule:nonzero;stroke:none"
         transform="matrix(0.13333333,0,0,-0.13333333,0,182)" />
      <path
         id="path15"
         d="m 2502.17,111.961 c 73.77,0 134.12,59.91 134.12,133.629 0,73.25 -60.35,134.578 -134.12,134.578 -73.21,0 -133.58,-61.328 -133.58,-134.578 0,-73.719 60.37,-133.629 133.58,-133.629 z m 0,319.75 c 103.15,0 185.66,-82.992 185.66,-186.121 0,-103.199 -82.51,-185.1916 -185.66,-185.1916 -103.15,0 -185.14,81.9926 -185.14,185.1916 0,103.129 81.99,186.121 185.14,186.121"
         style="fill:#64c438;fill-opacity:1;fill-rule:nonzero;stroke:none"
         transform="matrix(0.13333333,0,0,-0.13333333,0,182)" />
      <path
         id="path16"
         d="m 2886.14,247.129 c 35.58,0 65.49,28.902 65.49,66.012 0,35.089 -29.91,61.879 -65.49,61.879 h -71.15 V 247.129 Z m -124.27,172.207 c 0,5.215 0.82,7.187 6,7.187 h 121.35 c 63.4,0 115.55,-51.503 115.55,-113.875 0,-63.988 -52.15,-116.109 -115.01,-116.109 h -74.77 V 72.9609 c 0,-5.1093 -1.83,-7.4414 -6.95,-7.4414 h -38.54 c -5.7,0 -7.63,2.3321 -7.63,7.4414 V 419.336"
         style="fill:#64c438;fill-opacity:1;fill-rule:nonzero;stroke:none"
         transform="matrix(0.13333333,0,0,-0.13333333,0,182)" />
      <path
         id="path17"
         d="m 3068.37,419.395 c 0,5.183 1.74,7.128 6.9,7.128 h 40.5 c 5.7,0 6.25,-1.945 6.25,-7.128 V 272.859 h 188.78 v 146.536 c 0,5.183 1.39,7.128 7,7.128 h 39.95 c 5.16,0 6.7,-1.945 6.7,-7.128 V 72.2695 c 0,-5.0976 -1.38,-6.75 -6.52,-6.75 h -40.31 c -5.69,0 -6.82,1.6524 -6.82,6.75 V 224.449 H 3122.02 V 72.2695 c 0,-5.0976 -2.19,-6.75 -7.81,-6.75 h -38.94 c -5.16,0 -6.9,1.6524 -6.9,6.75 V 419.395"
         style="fill:#64c438;fill-opacity:1;fill-rule:nonzero;stroke:none"
         transform="matrix(0.13333333,0,0,-0.13333333,0,182)" />
      <path
         id="path18"
         d="m 3535.36,239.379 -120.69,172.293 c -4.13,6.68 0,14.851 8.28,14.851 h 38.14 c 4.15,0 6.72,-2.546 8.23,-4.55 l 93.38,-131.594 93.34,131.594 c 1.53,2.004 4.62,4.55 8.27,4.55 h 38.65 c 8.29,0 12.39,-8.171 8.29,-14.851 L 3588.98,239.879 V 73.1406 c 0,-5.1211 -2.51,-7.6211 -7.66,-7.6211 h -39.09 c -5.66,0 -6.87,2.5 -6.87,7.6211 V 239.379"
         style="fill:#64c438;fill-opacity:1;fill-rule:nonzero;stroke:none"
         transform="matrix(0.13333333,0,0,-0.13333333,0,182)" />
      <path
         id="path19"
         d="m 3737.68,117.699 c 4.58,6.699 8.72,14.481 13.39,21.082 7.06,10.028 9.39,10.739 17.61,4.141 3.06,-2.5 42.77,-35.59 82.41,-35.59 35.63,0 58.33,21.68 58.33,47.938 0,31.011 -26.85,50.589 -77.87,71.73 -52.6,22.16 -93.87,49.469 -93.87,109.309 0,40.183 31,95.402 112.93,95.402 51.6,0 90.08,-27.121 95.41,-30.434 7.49,-4.629 10.21,-6.226 3.16,-17.488 -4,-6.328 -8.59,-13.574 -12.89,-19.598 -6.32,-8.781 -7.97,-10.921 -18.13,-5.191 -3.63,2.031 -39.69,25.797 -69.62,25.797 -43.28,0 -58.25,-27.336 -58.25,-46.375 0,-29.422 22.7,-47.492 65.49,-65.043 59.84,-24.219 110.9,-52.57 110.9,-115.469 0,-53.672 -47.98,-97.5116 -115.02,-97.5116 -62.96,0 -101.82,33.1602 -110.9,40.7036 -8.73,7.277 -10.22,5.976 -3.08,16.597"
         style="fill:#64c438;fill-opacity:1;fill-rule:nonzero;stroke:none"
         transform="matrix(0.13333333,0,0,-0.13333333,0,182)" />
      <path
         id="path20"
         d="m 4038.03,419.855 c 0,5.211 1.34,6.668 6.47,6.668 h 41.94 c 5.16,0 5.26,-1.457 5.26,-6.668 V 72.6289 c 0,-5.1094 -1.69,-7.1094 -6.9,-7.1094 h -39.45 c -5.08,0 -7.32,2 -7.32,7.1094 V 419.855"
         style="fill:#64c438;fill-opacity:1;fill-rule:nonzero;stroke:none"
         transform="matrix(0.13333333,0,0,-0.13333333,0,182)" />
      <path
         id="path21"
         d="m 4530.23,117.699 c 4.57,6.699 8.75,14.481 13.46,21.082 7.02,10.028 9.33,10.739 17.5,4.141 3.14,-2.5 42.82,-35.59 82.42,-35.59 35.7,0 58.38,21.68 58.38,47.938 0,31.011 -26.79,50.589 -77.91,71.73 -52.56,22.16 -93.85,49.469 -93.85,109.309 0,40.183 30.96,95.402 112.9,95.402 51.66,0 90.1,-27.121 95.47,-30.434 7.49,-4.629 10.18,-6.226 3.12,-17.488 -3.92,-6.328 -8.58,-13.574 -12.9,-19.598 -6.3,-8.781 -7.91,-10.921 -18.11,-5.191 -3.56,2.031 -39.68,25.797 -69.59,25.797 -43.32,0 -58.26,-27.336 -58.26,-46.375 0,-29.422 22.71,-47.492 65.5,-65.043 59.82,-24.219 110.88,-52.57 110.88,-115.469 0,-53.672 -48,-97.5116 -115.02,-97.5116 -62.96,0 -101.78,33.1602 -110.91,40.7036 -8.69,7.277 -10.26,5.976 -3.08,16.597"
         style="fill:#64c438;fill-opacity:1;fill-rule:nonzero;stroke:none"
         transform="matrix(0.13333333,0,0,-0.13333333,0,182)" />
    </g>
  </g>
</svg>
